<?xml version="1.0" encoding="utf-8"?>
<!-- Generator: Adobe Illustrator 25.4.3, SVG Export Plug-In . SVG Version: 6.00 Build 0)  -->
<svg version="1.1" id="Layer_1" xmlns="http://www.w3.org/2000/svg" xmlns:xlink="http://www.w3.org/1999/xlink" x="0px" y="0px"
	 viewBox="0 0 1000 1000" enable-background="new 0 0 1000 1000" xml:space="preserve">
<linearGradient id="SVGID_1_" gradientUnits="userSpaceOnUse" x1="124.6356" y1="499.9998" x2="875.3641" y2="499.9998">
	<stop  offset="0" stop-color="#f00"/>
	<stop  offset="1" stop-color="#ff0"/>
</linearGradient>
<path fill="url(#SVGID_1_)" d="M717.7,708.2c-53.7,0-104.8-20.4-143.7-57.5c-5.8-5.5-10-12.5-12.3-20.2c-0.6-2.1-2-4.1-3.8-5.5
	c-7.4-5.5-14.6-11.4-21.4-17.7c-6.3-5.8-7.4-15.5-2.5-22.5c12.1-17.3,22.4-36,30.7-55.6c1.7-4,3.4-8.2,4.9-12.3
	c2.1-5.7,7.1-9.9,13.1-10.9c6-1.1,12.1,1.1,16.1,5.7c15.2,17.8,34.6,32.1,55.9,41.5c0.1,0,0.2,0.1,0.3,0.2c19.8,8.6,40.8,13,62.6,13
	c21.9,0,43.1-4.4,63-13.2c13-5.7,28.3-4.9,40.7,2.3c14.5,8.3,28,18.5,40.1,30c8.9,8.5,13.9,20.1,13.9,32.5c0,12.3-5.1,24.2-14,32.7
	C822.4,687.8,771.4,708.2,717.7,708.2z M282.3,708.2c-53.7,0-104.8-20.4-143.7-57.5c-8.9-8.5-14-20.4-14-32.7
	c0-12.4,4.9-23.9,13.9-32.5c12.1-11.6,25.6-21.7,40.1-30c12.5-7.2,27.7-8,40.7-2.3c19.9,8.7,41.1,13.2,63,13.2
	c21.8,0,42.9-4.4,62.6-13c0.1-0.1,0.2-0.1,0.3-0.2c45.2-19.9,78.7-60.4,89.7-108.4l19.9-87.3c6.8-29.9,36.5-49,66.1-42.7
	c14.7,3.2,27.2,11.9,35.3,24.5c8.1,12.7,10.7,27.7,7.3,42.4l-19.9,87.1c0,0.3-0.1,0.5-0.2,0.8c-3.5,15.2-8.3,30.2-14.4,44.6
	c-13.5,31.9-32.8,60.6-57.4,85.2c-9.3,9.3-19.3,17.9-29.8,25.7c-1.9,1.4-3.2,3.3-3.8,5.5c-2.2,7.7-6.5,14.7-12.3,20.2
	C387.1,687.8,336.1,708.2,282.3,708.2z M717.7,527.9c-65.1,0-118-53-118-118c0-65.1,53-118,118-118c65.1,0,118,53,118,118
	C835.7,474.9,782.8,527.9,717.7,527.9z M282.3,527.9c-65.1,0-118-53-118-118c0-65.1,53-118,118-118s118,53,118,118
	C400.4,474.9,347.4,527.9,282.3,527.9z"/>
</svg>
