<?xml version="1.0" encoding="utf-8"?>
<!-- Generator: Adobe Illustrator 25.4.3, SVG Export Plug-In . SVG Version: 6.00 Build 0)  -->
<svg version="1.1" id="Layer_1" xmlns="http://www.w3.org/2000/svg" xmlns:xlink="http://www.w3.org/1999/xlink" x="0px" y="0px"
	 viewBox="0 0 1000 1000" enable-background="new 0 0 1000 1000" xml:space="preserve">
<path fill="#BFBFBF" d="M500,336.9c-40.3,0-73-32.7-73-73s32.7-73,73-73s73,32.7,73,73S540.3,336.9,500,336.9z M573,500
	c0-40.3-32.7-73-73-73s-73,32.7-73,73s32.7,73,73,73S573,540.3,573,500z M573,736.1c0-40.3-32.7-73-73-73s-73,32.7-73,73
	c0,40.3,32.7,73,73,73S573,776.4,573,736.1z"/>
</svg>
