<?xml version="1.0" encoding="utf-8"?>
<!-- Generator: Adobe Illustrator 25.4.3, SVG Export Plug-In . SVG Version: 6.00 Build 0)  -->
<svg version="1.1" id="Layer_1" xmlns="http://www.w3.org/2000/svg" xmlns:xlink="http://www.w3.org/1999/xlink" x="0px" y="0px"
	 viewBox="0 0 1000 1000" enable-background="new 0 0 1000 1000" xml:space="preserve">
<path id="forum" fill="#000" stroke="#000" stroke-width="34.4439" stroke-linejoin="round" stroke-miterlimit="10" d="
	M600.8,546.1c0,55.7-45.1,100.8-100.8,100.8c-55.7,0-100.8-45.1-100.8-100.8c0-55.7,45.1-100.8,100.8-100.8S600.8,490.4,600.8,546.1
	z M595.1,706.6c-7.7-4.4-17.1-5-25.2-1.5c-21.4,9.4-45,14.6-69.9,14.6c-24.9,0-48.5-5.2-69.9-14.6c-8.1-3.6-17.5-3-25.2,1.5
	c-13.4,7.7-25.7,17-36.8,27.6c-11.5,11-11.3,29.3,0.2,40.3c34.3,32.7,80.7,52.7,131.8,52.7c51.1,0,97.5-20.1,131.8-52.7
	c11.5-11,11.6-29.3,0.2-40.3C620.9,723.6,608.5,714.3,595.1,706.6z M651.1,623.2c-4.8,9.4-10.5,18.2-16.9,26.5
	c16.3,9.8,31.5,21.5,45.3,34.7c15,14.3,24.7,32.5,28.3,52.4c47.2-2.4,89.9-21.9,122-52.5c11.5-11,11.6-29.3,0.2-40.3
	c-11.1-10.6-23.4-19.9-36.8-27.6c-7.7-4.4-17.1-5-25.2-1.5c-21.4,9.4-45,14.6-69.9,14.6C681.8,629.6,666,627.4,651.1,623.2z
	 M606.3,413.9c38.6,31.1,63.4,78.8,63.4,132.2c0,2.2,0,4.4-0.1,6.6c9,2.6,18.6,4.1,28.4,4.1c55.7,0,100.8-45.1,100.8-100.8
	c0-55.7-45.1-100.8-100.8-100.8C657.3,355.1,622.3,379.2,606.3,413.9L606.3,413.9z M302,629.6c-24.9,0-48.5-5.2-69.9-14.6
	c-8.1-3.6-17.5-3-25.2,1.5c-13.4,7.7-25.7,17-36.8,27.6c-11.5,11-11.3,29.3,0.2,40.3c32.1,30.6,74.8,50.1,122,52.5
	c3.6-19.9,13.3-38.1,28.3-52.4c13.8-13.2,29-24.8,45.3-34.7c-6.4-8.3-12.1-17.1-16.9-26.5C334,627.4,318.2,629.6,302,629.6z
	 M393.7,413.9c-15.9-34.7-51-58.8-91.7-58.8c-55.7,0-100.8,45.1-100.8,100.8c0,55.7,45.1,100.8,100.8,100.8c9.9,0,19.4-1.4,28.4-4.1
	c-0.1-2.2-0.1-4.4-0.1-6.6C330.3,492.7,355,445,393.7,413.9L393.7,413.9z"/>
<line fill="none" stroke="#0ff" stroke-width="89.5895" stroke-linecap="round" stroke-miterlimit="10" x1="500" y1="172.8" x2="500" y2="219.9"/>
<line fill="none" stroke="#00f" stroke-width="89.5895" stroke-linecap="round" stroke-miterlimit="10" x1="645.3" y1="264.9" x2="671.9" y2="225.9"/>
<line fill="none" stroke="#fff" stroke-width="89.5895" stroke-linecap="round" stroke-miterlimit="10" x1="354.7" y1="264.9" x2="328.1" y2="225.9"/>
</svg>
