<?xml version="1.0" encoding="utf-8"?>
<!-- Generator: Adobe Illustrator 25.4.3, SVG Export Plug-In . SVG Version: 6.00 Build 0)  -->
<svg version="1.1" id="Layer_1" xmlns="http://www.w3.org/2000/svg" xmlns:xlink="http://www.w3.org/1999/xlink" x="0px" y="0px"
	 viewBox="0 0 1000 1000" enable-background="new 0 0 1000 1000" xml:space="preserve">
<path fill="#000" stroke="#000" stroke-width="55.7302" stroke-miterlimit="10" d="M663.1,354.1c0,90.1-73,163.1-163.1,163.1
	c-90.1,0-163.1-73-163.1-163.1S409.9,191,500,191S663.1,264,663.1,354.1z M653.9,613.9c-12.5-7.2-27.6-8.1-40.8-2.3
	c-34.6,15.2-72.9,23.7-113.1,23.7s-78.5-8.5-113.1-23.7c-13.2-5.8-28.3-4.8-40.8,2.3c-21.6,12.5-41.6,27.5-59.6,44.6
	c-18.6,17.7-18.3,47.4,0.3,65.2C342.2,776.6,417.3,809,500,809s157.8-32.5,213.2-85.3c18.6-17.7,18.8-47.4,0.3-65.2
	C695.5,641.4,675.5,626.4,653.9,613.9z"/>
</svg>
