<?xml version="1.0" encoding="utf-8"?>
<!-- Generator: Adobe Illustrator 25.4.3, SVG Export Plug-In . SVG Version: 6.00 Build 0)  -->
<svg version="1.1" id="Layer_1" xmlns="http://www.w3.org/2000/svg" xmlns:xlink="http://www.w3.org/1999/xlink" x="0px" y="0px"
	 viewBox="0 0 1000 1000" enable-background="new 0 0 1000 1000" xml:space="preserve">
<path fill="#BFBFBF" stroke="#BFBFBF" stroke-width="55.7302" stroke-miterlimit="10" d="M643.7,773.7
	c-42.5,22.3-90.8,35.1-142.1,35.3C331.4,809.9,191.9,671.8,191,501.6c-0.9-172,138.7-311.5,310.7-310.7
	c170.2,0.9,308.2,140.4,307.4,310.6c-0.3,51.3-13,99.6-35.3,142.1c0,0,11.1,51.7,20.8,97.3c6.8,32-21.6,60.3-53.5,53.5L643.7,773.7z
	"/>
<path fill="#FFFFFF" d="M399.2,501.6c0,24.9-20.2,45.1-45.1,45.1c-24.9,0-45.1-20.2-45.1-45.1c0-24.9,20.2-45.1,45.1-45.1
	C379,456.5,399.2,476.7,399.2,501.6z M500,456.5c-24.9,0-45.1,20.2-45.1,45.1s20.2,45.1,45.1,45.1c24.9,0,45.1-20.2,45.1-45.1
	S524.9,456.5,500,456.5z M645.9,456.5c-24.9,0-45.1,20.2-45.1,45.1s20.2,45.1,45.1,45.1c24.9,0,45.1-20.2,45.1-45.1
	S670.8,456.5,645.9,456.5z"/>
</svg>
