<?xml version="1.0" encoding="utf-8"?>
<!-- Generator: Adobe Illustrator 25.4.3, SVG Export Plug-In . SVG Version: 6.00 Build 0)  -->
<svg version="1.1" id="Layer_1" xmlns="http://www.w3.org/2000/svg" xmlns:xlink="http://www.w3.org/1999/xlink" x="0px" y="0px"
	 viewBox="0 0 1326.9 654.9" enable-background="new 0 0 1326.9 654.9" xml:space="preserve">
<path fill="none" stroke="#F7F7F7" stroke-width="39.841" stroke-linecap="round" stroke-miterlimit="10" d="M172.7,319.4v48.8
	c0,8.1-5.1,15.3-12.8,18c-7.7,2.7-16.2,0.2-21.2-6.1c-11.3-14.1-24.4-26.8-39-37.6c-8.3-6.2-18.6-9.9-29.8-9.9
	c-27.6,0-50,22.4-50,50c0,16.4,7.9,31,20.2,40.1c29.6,22,53,51.4,67.7,85.2c13.7,31.4,35.1,59.7,63.3,81.8
	c76.8,60.2,184.7,60.2,261.5,0c18.4-14.4,32.8-33.7,41.4-55.8c20.9-54.1,18.7-114.5-6.1-167c-8-16.9-25.2-28.6-45.2-28.6
	c-8.6,0-16.7,2.2-23.8,6c-5.2,2.8-11.4,3.1-16.8,0.7c-5.4-2.4-9.4-7.1-10.8-12.9c-5.4-21.8-25.1-37.9-48.5-37.9
	c-8,0-15.6,1.9-22.4,5.3c-5.9,3-13,2.6-18.6-0.8c-5.6-3.5-9.1-9.6-9.1-16.2v-24.3"/>
<rect opacity="8.000000e-02" fill="none" width="1326.9" height="654.9"/>
<g>
	<defs>
		<path id="SVGID_00000154412691569565830730000015578451446666017982_" d="M67.4,155.3C67.4,69.7,137.1,0,222.7,0
			c51.9,0,98,25.6,126.2,64.9c-14.7,4.3-27.9,11.9-38.6,22.4c-17.4,17.1-27,40.8-27,66.7L67.4,155.3z"/>
	</defs>
	<clipPath id="SVGID_00000070092771661981049220000001282826723974559628_">
		<use xlink:href="#SVGID_00000154412691569565830730000015578451446666017982_"  overflow="visible"/>
	</clipPath>
	
		<linearGradient id="SVGID_00000140732451187102742990000002294974892641667461_" gradientUnits="userSpaceOnUse" x1="76.5621" y1="66.8895" x2="368.8869" y2="66.8895">
		<stop  offset="0" style="stop-color:#96D5FF"/>
		<stop  offset="1" style="stop-color:#CB96FF"/>
	</linearGradient>
	
		<path clip-path="url(#SVGID_00000070092771661981049220000001282826723974559628_)" fill="url(#SVGID_00000140732451187102742990000002294974892641667461_)" d="
		M116,133.8c-2.4,0-4.8-0.4-7.2-1.4l-19.6-7.6c-10.3-4-15.3-15.5-11.3-25.8c4-10.3,15.5-15.3,25.8-11.3l19.6,7.6
		c10.3,4,15.3,15.5,11.3,25.8C131.5,128.9,124,133.8,116,133.8z M329.4,133.8c-8,0-15.5-4.8-18.6-12.7c-4-10.3,1.1-21.8,11.3-25.8
		l19.6-7.6c10.3-4,21.8,1.1,25.8,11.3s-1.1,21.8-11.3,25.8l-19.6,7.6C334.3,133.3,331.8,133.8,329.4,133.8z M287.3,80.8
		c-3.9,0-7.8-1.1-11.2-3.5c-9.1-6.2-11.4-18.6-5.2-27.7l11.8-17.3c6.2-9.1,18.6-11.4,27.7-5.2c9.1,6.2,11.4,18.6,5.2,27.7
		l-11.8,17.3C299.9,77.8,293.7,80.8,287.3,80.8z M158.1,80.8c-6.4,0-12.6-3-16.5-8.7l-11.9-17.3c-6.2-9.1-3.9-21.5,5.2-27.7
		c9.1-6.2,21.5-3.9,27.7,5.2l11.9,17.3c6.2,9.1,3.9,21.5-5.2,27.7C165.9,79.7,162,80.8,158.1,80.8z M222.7,60.8
		c-11,0-19.9-8.9-19.9-19.9V19.9c0-11,8.9-19.9,19.9-19.9s19.9,8.9,19.9,19.9v20.9C242.6,51.9,233.7,60.8,222.7,60.8z"/>
</g>
<g>
	<path fill="#24272A" d="M447.8,219.2h-36.4v-20.3h-0.5c-6.3,14.2-21.1,23.7-40.4,23.7c-27.7,0-62.5-20.3-62.5-68.6
		c0-39.6,29-68.6,70.2-68.6c41.2,0,69.7,27.2,69.7,69.9V219.2z M408.2,154c0-18.7-12.1-31.7-30.1-31.7c-17.9,0-30.1,12.9-30.1,31.7
		c0,18.7,12.1,31.7,30.1,31.7C396.1,185.7,408.2,172.7,408.2,154z"/>
	<g>
		<path fill="#24272A" d="M551.2,146.1V145c0-17.4-7.9-22.7-19-22.7c-11.1,0-19,5.3-19,22.7v74.1h-39.6V145
			c0-40.6,23.7-59.6,58.6-59.6c35.1,0,58.6,19,58.6,60.7H551.2z"/>
	</g>
	<g>
		<path fill="#24272A" d="M716.1,167.7c0,37.2-22.2,54.9-54.6,54.9s-54.6-17.7-54.6-54.9V46.9h39.6v42h61.7v35.6h-61.7v43.3
			c0,13.7,6.3,17.9,15,17.9c8.7,0,15-4.2,15-17.9v-4h39.6V167.7z"/>
	</g>
	<g>
		<path fill="#24272A" d="M869.6,219.2h-36.4v-20.3h-0.5c-6.3,14.2-21.1,23.7-40.4,23.7c-27.7,0-62.5-20.3-62.5-68.6
			c0-39.6,29-68.6,70.2-68.6c41.2,0,69.7,27.2,69.7,69.9V219.2z M830.1,154c0-18.7-12.1-31.7-30.1-31.7c-17.9,0-30.1,12.9-30.1,31.7
			c0,18.7,12.1,31.7,30.1,31.7C817.9,185.7,830.1,172.7,830.1,154z"/>
	</g>
	<g>
		<path fill="#24272A" d="M899.7,219.2V31.9h39.6v111.1h0.5l40.9-54.1h49.1l-53,63.9l55.1,66.5h-50.1l-42-55.4h-0.5v55.4H899.7z"/>
	</g>
	<g>
		<path fill="#24272A" d="M1075.7,165.1v0.5c3.4,14.2,14.2,21.6,29,21.6c11.3,0,19.8-2.4,24.8-9.5h40.9
			c-8.4,26.9-33.2,44.9-65.7,44.9c-41.2,0-70.2-29-70.2-68.6s29-68.6,70.2-68.6c41.2,0,69.4,29,69.4,68.6v11.1H1075.7z
			 M1076.5,139.5v0.5h57v-0.5c-4.5-12.4-15-18.7-28.8-18.7C1091,120.8,1080.7,127.1,1076.5,139.5z"/>
	</g>
</g>
<path fill="none" stroke="#24272A" stroke-width="39.841" stroke-linecap="round" stroke-miterlimit="10" d="M227.8,205
	c0.6,0,1.2-0.1,1.8-0.2c24.4-3.3,43.2-24.2,43.2-49.5c0-27.6-22.4-50-50-50s-50,22.4-50,50v99.6"/>
</svg>
