<?xml version="1.0" encoding="utf-8"?>
<!-- Generator: Adobe Illustrator 25.4.3, SVG Export Plug-In . SVG Version: 6.00 Build 0)  -->
<svg version="1.1" id="Layer_1" xmlns="http://www.w3.org/2000/svg" xmlns:xlink="http://www.w3.org/1999/xlink" x="0px" y="0px"
	 viewBox="0 0 1194.1 276.9" enable-background="new 0 0 1194.1 276.9" xml:space="preserve">
<g>
	<defs>
		<path id="SVGID_1_" d="M1,156.3C1,70.7,70.7,1,156.3,1c51.9,0,98,25.6,126.2,64.9c-14.7,4.3-27.9,11.9-38.6,22.4
			c-17.4,17.1-27,40.8-27,66.7L1,156.3z"/>
	</defs>
	<clipPath id="SVGID_00000181056273900200454020000006386009351869024688_">
		<use xlink:href="#SVGID_1_"  overflow="visible"/>
	</clipPath>
	
		<linearGradient id="SVGID_00000137128384062139255720000017673793335182060478_" gradientUnits="userSpaceOnUse" x1="10.1706" y1="67.8895" x2="302.4954" y2="67.8895">
		<stop  offset="0" style="stop-color:#96D5FF"/>
		<stop  offset="1" style="stop-color:#CB96FF"/>
	</linearGradient>
	
		<path clip-path="url(#SVGID_00000181056273900200454020000006386009351869024688_)" fill="url(#SVGID_00000137128384062139255720000017673793335182060478_)" d="
		M49.6,134.8c-2.4,0-4.8-0.4-7.2-1.4l-19.6-7.6c-10.3-4-15.3-15.5-11.3-25.8c4-10.3,15.5-15.3,25.8-11.3l19.6,7.6
		c10.3,4,15.3,15.5,11.3,25.8C65.2,129.9,57.6,134.8,49.6,134.8z M263,134.8c-8,0-15.5-4.8-18.6-12.7c-4-10.3,1.1-21.8,11.3-25.8
		l19.6-7.6c10.3-4,21.8,1.1,25.8,11.3s-1.1,21.8-11.3,25.8l-19.6,7.6C267.9,134.3,265.4,134.8,263,134.8z M220.9,81.8
		c-3.9,0-7.8-1.1-11.2-3.5c-9.1-6.2-11.4-18.6-5.2-27.7l11.8-17.3c6.2-9.1,18.6-11.4,27.7-5.2c9.1,6.2,11.4,18.6,5.2,27.7
		l-11.8,17.3C233.5,78.8,227.3,81.8,220.9,81.8z M91.8,81.8c-6.4,0-12.6-3-16.5-8.7L63.4,55.8c-6.2-9.1-3.9-21.5,5.2-27.7
		c9.1-6.2,21.5-3.9,27.7,5.2l11.9,17.3c6.2,9.1,3.9,21.5-5.2,27.7C99.5,80.7,95.6,81.8,91.8,81.8z M156.3,61.8
		c-11,0-19.9-8.9-19.9-19.9V20.9c0-11,8.9-19.9,19.9-19.9s19.9,8.9,19.9,19.9v20.9C176.3,52.9,167.3,61.8,156.3,61.8z"/>
</g>
<g>
	<path fill="#24272A" d="M381.4,220.2H345v-20.3h-0.5c-6.3,14.2-21.1,23.7-40.4,23.7c-27.7,0-62.5-20.3-62.5-68.6
		c0-39.6,29-68.6,70.2-68.6c41.2,0,69.7,27.2,69.7,69.9V220.2z M341.8,155c0-18.7-12.1-31.7-30.1-31.7c-17.9,0-30.1,12.9-30.1,31.7
		c0,18.7,12.1,31.7,30.1,31.7C329.7,186.7,341.8,173.7,341.8,155z"/>
	<g>
		<path fill="#24272A" d="M484.8,147.1V146c0-17.4-7.9-22.7-19-22.7s-19,5.3-19,22.7v74.1h-39.6V146c0-40.6,23.7-59.6,58.6-59.6
			c35.1,0,58.6,19,58.6,60.7H484.8z"/>
	</g>
	<g>
		<path fill="#24272A" d="M649.7,168.7c0,37.2-22.2,54.9-54.6,54.9s-54.6-17.7-54.6-54.9V47.9H580v42h61.7v35.6H580v43.3
			c0,13.7,6.3,17.9,15,17.9c8.7,0,15-4.2,15-17.9v-4h39.6V168.7z"/>
	</g>
	<g>
		<path fill="#24272A" d="M803.3,220.2h-36.4v-20.3h-0.5c-6.3,14.2-21.1,23.7-40.4,23.7c-27.7,0-62.5-20.3-62.5-68.6
			c0-39.6,29-68.6,70.2-68.6c41.2,0,69.7,27.2,69.7,69.9V220.2z M763.7,155c0-18.7-12.1-31.7-30.1-31.7c-17.9,0-30.1,12.9-30.1,31.7
			c0,18.7,12.1,31.7,30.1,31.7C751.5,186.7,763.7,173.7,763.7,155z"/>
	</g>
	<g>
		<path fill="#24272A" d="M833.3,220.2V32.9h39.6v111.1h0.5l40.9-54.1h49.1l-53,63.9l55.1,66.5h-50.1l-42-55.4h-0.5v55.4H833.3z"/>
	</g>
	<g>
		<path fill="#24272A" d="M1009.3,166.1v0.5c3.4,14.2,14.2,21.6,29,21.6c11.3,0,19.8-2.4,24.8-9.5h40.9
			c-8.4,26.9-33.2,44.9-65.7,44.9c-41.2,0-70.2-29-70.2-68.6s29-68.6,70.2-68.6c41.2,0,69.4,29,69.4,68.6v11.1H1009.3z
			 M1010.1,140.5v0.5h57v-0.5c-4.5-12.4-15-18.7-28.8-18.7C1024.6,121.8,1014.3,128.1,1010.1,140.5z"/>
	</g>
</g>
<path fill="none" stroke="#24272A" stroke-width="39.841" stroke-linecap="round" stroke-miterlimit="10" d="M161.4,206
	c0.6,0,1.2-0.1,1.8-0.2c24.4-3.3,43.2-24.2,43.2-49.5c0-27.6-22.4-50-50-50s-50,22.4-50,50v99.6"/>
</svg>
